<svg xmlns="http://www.w3.org/2000/svg" version="1.1" xmlns:xlink="http://www.w3.org/1999/xlink" xmlns:svgjs="http://svgjs.dev/svgjs" width="2000" height="702" viewBox="0 0 2000 702"><g transform="matrix(1,0,0,1,-1.2121212121212466,-0.42468922697941025)"><svg viewBox="0 0 396 139" data-background-color="#ffffff" preserveAspectRatio="xMidYMid meet" height="702" width="2000" xmlns="http://www.w3.org/2000/svg" xmlns:xlink="http://www.w3.org/1999/xlink"><g id="tight-bounds" transform="matrix(1,0,0,1,0.2400000000000091,0.08409088682356014)"><svg viewBox="0 0 395.52 138.83181822635288" height="138.83181822635288" width="395.52"><g><svg viewBox="0 0 696.3640809599999 244.43135999999998" height="138.83181822635288" width="395.52"><g transform="matrix(1,0,0,1,0,2.735679999999988)"><svg viewBox="0 0 395.52 238.96" height="238.96" width="395.52"><g id="textblocktransform"><svg viewBox="0 0 395.52 238.96" height="238.96" width="395.52" id="textblock"><g><svg viewBox="0 0 395.52 238.96" height="238.96" width="395.52"><g transform="matrix(1,0,0,1,0,0)"><svg width="395.52" viewBox="0.5 -34.29999923706055 57.599998474121094 34.79999923706055" height="238.96" data-palette-color="#000000"><path d="M0.5-11.4L7.75-11.4 7.75-9.35Q7.75-7.85 8.85-6.75 9.95-5.65 11.4-5.65L11.4-5.65Q13.05-5.65 14.13-6.68 15.2-7.7 15.2-9.35L15.2-9.35 15.2-34.3 22.75-34.3 22.75-9.15Q22.75-4.55 19.75-2.02 16.75 0.5 11.95 0.5L11.95 0.5 10.95 0.5Q6.15 0.5 3.33-2 0.5-4.5 0.5-9.15L0.5-9.15 0.5-11.4ZM42.6-9.8L42.85-9.8 50.7-34.3 58.1-34.3 46.8 0 37.95 0 26.7-34.3 34.8-34.3 42.6-9.8Z" opacity="1" transform="matrix(1,0,0,1,0,0)" fill="#000000" class="wordmark-text-0" data-fill-palette-color="primary" id="text-0"></path></svg></g></svg></g></svg></g></svg></g><g transform="matrix(1,0,0,1,451.93272096,0)"><svg viewBox="0 0 244.43135999999998 244.43135999999998" height="244.43135999999998" width="244.43135999999998"><g data-palette-color="#000000"><rect width="66.8112384" height="244.43135999999998" fill="#000000" stroke="transparent" data-fill-palette-color="accent" x="0" fill-opacity="1"></rect><rect width="66.8112384" height="244.43135999999998" fill="#000000" stroke="transparent" data-fill-palette-color="accent" x="81.47711999999999" fill-opacity="0.75"></rect><rect width="66.8112384" height="244.43135999999998" fill="#000000" stroke="transparent" data-fill-palette-color="accent" x="162.95423999999997" fill-opacity="0.5"></rect></g></svg></g></svg></g><defs></defs></svg><rect width="395.52" height="138.83181822635288" fill="none" stroke="none" visibility="hidden"></rect></g></svg></g></svg>